<svg width="24" height="24" viewBox="0 0 24 24" fill="none" xmlns="http://www.w3.org/2000/svg">
<path d="M11.989 16.4717C11.7579 16.4697 11.5367 16.378 11.372 16.216L2.6447 7.48875C2.48573 7.32415 2.39776 7.1037 2.39975 6.87487C2.40174 6.64605 2.49352 6.42716 2.65534 6.26535C2.81715 6.10353 3.03604 6.01175 3.26486 6.00976C3.49369 6.00777 3.71414 6.09574 3.87874 6.25471L11.989 14.365L20.0992 6.25471C20.1798 6.17136 20.2761 6.10487 20.3825 6.05914C20.489 6.0134 20.6035 5.98932 20.7194 5.98831C20.8353 5.98731 20.9502 6.00939 21.0575 6.05327C21.1647 6.09715 21.2622 6.16195 21.3441 6.2439C21.426 6.32584 21.4909 6.42328 21.5347 6.53054C21.5786 6.63779 21.6007 6.75271 21.5997 6.86859C21.5987 6.98447 21.5746 7.09899 21.5289 7.20547C21.4831 7.31194 21.4166 7.40824 21.3333 7.48875L12.606 16.216C12.4413 16.378 12.22 16.4697 11.989 16.4717Z" fill="#B9BBBD"/>
</svg>
