<svg width="28" height="28" viewBox="0 0 28 28" fill="none" xmlns="http://www.w3.org/2000/svg">
<path d="M23.625 6.125H22.75V2.625C22.75 2.47262 22.7102 2.32289 22.6345 2.19062C22.5589 2.05835 22.45 1.94813 22.3186 1.87087C22.1873 1.79361 22.0381 1.75199 21.8857 1.75013C21.7333 1.74826 21.5831 1.78622 21.4499 1.86025L14 5.99909L6.55007 1.86025C6.41689 1.78622 6.26667 1.74826 6.11431 1.75013C5.96194 1.75199 5.8127 1.79361 5.68136 1.87087C5.55002 1.94813 5.44113 2.05835 5.36547 2.19062C5.28981 2.32289 5.25001 2.47262 5.25 2.625V6.125H4.375C3.67904 6.12576 3.01181 6.40257 2.51969 6.89469C2.02757 7.3868 1.75076 8.05404 1.75 8.75V11.375C1.75076 12.071 2.02757 12.7382 2.51969 13.2303C3.01181 13.7224 3.67904 13.9992 4.375 14H5.25V23.625C5.25076 24.321 5.52757 24.9882 6.01969 25.4803C6.51181 25.9724 7.17904 26.2492 7.875 26.25H20.125C20.821 26.2492 21.4882 25.9724 21.9803 25.4803C22.4724 24.9882 22.7492 24.321 22.75 23.625V14H23.625C24.321 13.9992 24.9882 13.7224 25.4803 13.2303C25.9724 12.7382 26.2492 12.071 26.25 11.375V8.75C26.2492 8.05404 25.9724 7.3868 25.4803 6.89469C24.9882 6.40257 24.321 6.12576 23.625 6.125ZM21 6.125H17.3769L21 4.1125V6.125ZM7 4.1125L10.6231 6.125H7V4.1125ZM7 23.625V14H13.125V24.5H7.875C7.64303 24.4997 7.42064 24.4074 7.25661 24.2434C7.09258 24.0793 7.0003 23.857 7 23.625ZM21 23.625C20.9997 23.857 20.9074 24.0793 20.7434 24.2434C20.5794 24.4074 20.357 24.4997 20.125 24.5H14.875V14H21V23.625ZM24.5 11.375C24.4997 11.607 24.4074 11.8294 24.2434 11.9934C24.0794 12.1574 23.857 12.2497 23.625 12.25H4.375C4.14303 12.2497 3.92064 12.1574 3.75661 11.9934C3.59258 11.8294 3.5003 11.607 3.5 11.375V8.75C3.5003 8.51803 3.59258 8.29564 3.75661 8.13161C3.92064 7.96758 4.14303 7.8753 4.375 7.875H23.625C23.857 7.8753 24.0794 7.96758 24.2434 8.13161C24.4074 8.29564 24.4997 8.51803 24.5 8.75V11.375Z" fill="#5E6C93"/>
</svg>
