<svg width="17" height="17" viewBox="0 0 17 17" fill="none" xmlns="http://www.w3.org/2000/svg">
<rect x="16.3729" y="17" width="16" height="16.1308" rx="8" transform="rotate(-180 16.3729 17)" fill="#2ED6A3" fill-opacity="0.15"/>
<g clip-path="url(#clip0_1_545)">
<path d="M6.39306 8.7956C6.48131 8.88455 6.60099 8.93451 6.72577 8.93451C6.85055 8.93451 6.97023 8.88455 7.05848 8.7956L7.90224 7.94494L7.90224 11.0696C7.90224 11.1954 7.95182 11.3161 8.04007 11.405C8.12833 11.494 8.24802 11.544 8.37283 11.544C8.49764 11.544 8.61733 11.494 8.70559 11.405C8.79384 11.3161 8.84342 11.1954 8.84342 11.0696L8.84342 7.94494L9.68718 8.7956C9.77594 8.88203 9.89481 8.92985 10.0182 8.92877C10.1416 8.92768 10.2596 8.87779 10.3469 8.78982C10.4341 8.70186 10.4836 8.58287 10.4847 8.45847C10.4857 8.33408 10.4383 8.21423 10.3526 8.12475L8.70554 6.46423C8.61729 6.37529 8.49761 6.32532 8.37283 6.32532C8.24805 6.32532 8.12837 6.37529 8.04012 6.46423L6.39306 8.12475C6.30484 8.21372 6.25528 8.33438 6.25528 8.46018C6.25528 8.58598 6.30484 8.70663 6.39306 8.7956Z" fill="#00A389"/>
</g>
<defs>
<clipPath id="clip0_1_545">
<rect width="5.64706" height="5.69322" fill="white" transform="translate(11.1964 11.7812) rotate(-180)"/>
</clipPath>
</defs>
</svg>
